<svg xmlns="http://www.w3.org/2000/svg" viewBox="0 0 297.5 297.5"><path d="M203.815 106.71v146.71l-27.181 23.48h-93.16l-27.19-23.48V106.71c9.11 8.79 21.33 13.91 34.29 13.91 5.609 0 11.1-.94 16.35-2.8 7.431 1.859 15.19 2.8 23.13 2.8 7.931 0 15.69-.94 23.12-2.8a48.863 48.863 0 0 0 16.36 2.8c12.951 0 25.181-5.12 34.281-13.91zm-13.22 130V135.98c0-5.62-4.56-10.171-10.18-10.171s-10.17 4.551-10.17 10.171v100.73c0 5.62 4.55 10.18 10.17 10.18s10.18-4.56 10.18-10.18zm-50.37 0V135.98c0-5.62-4.55-10.171-10.17-10.171s-10.18 4.551-10.18 10.171v100.73c0 5.62 4.559 10.18 10.18 10.18 5.62 0 10.17-4.56 10.17-10.18zm-50.36 0V135.98c0-5.62-4.561-10.171-10.181-10.171a10.167 10.167 0 0 0-10.17 10.171v100.73c0 5.62 4.551 10.18 10.17 10.18 5.621 0 10.181-4.56 10.181-10.18z" fill="#f5b543"/><path d="M276.315 119.19v117.52c0 5.62-4.561 10.18-10.181 10.18h-41.97v11.191c0 2.96-1.28 5.77-3.52 7.7l-33.58 29a10.191 10.191 0 0 1-6.65 2.47H79.685c-2.439 0-4.8-.88-6.649-2.47l-33.57-29a10.165 10.165 0 0 1-3.53-7.7V96.44c-8.819-5.261-14.75-14.94-14.75-26 0-16.58 13.311-30.08 29.721-30.181 9.27-12.44 23.84-19.95 39.49-20.01 9.3-12.47 23.98-20 39.659-20 15.681 0 30.351 7.53 39.66 20 15.65.06 30.22 7.57 39.49 20.01 16.4.101 29.72 13.601 29.72 30.181 0 11.06-5.93 20.739-14.76 26v12.579h41.97c5.619.001 10.179 4.561 10.179 10.171zm-20.35 107.35v-97.17h-30.02v97.17h30.02zm-37.39-156.1c0-5.421-4.29-9.83-9.561-9.83-.75 0-1.52.1-2.359.319a10.174 10.174 0 0 1-11.5-4.97c-5.17-9.47-14.99-15.36-25.62-15.36-1.21 0-2.45.091-3.78.261-4.14.54-8.18-1.49-10.21-5.13-5.2-9.33-14.97-15.131-25.49-15.131-10.52 0-20.29 5.801-25.5 15.131a10.148 10.148 0 0 1-10.199 5.13c-1.33-.17-2.57-.261-3.78-.261-10.63 0-20.45 5.891-25.62 15.36-2.24 4.1-6.98 6.15-11.5 4.97a9.205 9.205 0 0 0-2.36-.319c-5.27 0-9.56 4.409-9.56 9.83 0 5.42 4.29 9.819 9.56 9.819.75 0 1.53-.1 2.38-.319 4.521-1.171 9.24.88 11.48 4.97 5.17 9.47 14.99 15.359 25.62 15.359 4.03 0 7.95-.829 11.65-2.46 2.2-.97 4.66-1.13 6.971-.449 6.6 1.93 13.62 2.909 20.859 2.909 7.24 0 14.261-.979 20.86-2.909a10.245 10.245 0 0 1 6.969.449c3.7 1.631 7.61 2.46 11.65 2.46 10.63 0 20.45-5.89 25.62-15.359a10.178 10.178 0 0 1 11.48-4.97c.851.22 1.62.319 2.38.319 5.27.001 9.56-4.399 9.56-9.819zm-14.76 182.98V106.71c-9.101 8.79-21.33 13.91-34.28 13.91-5.62 0-11.101-.94-16.36-2.8-7.43 1.859-15.189 2.8-23.12 2.8-7.939 0-15.699-.94-23.13-2.8a48.805 48.805 0 0 1-16.35 2.8c-12.96 0-25.18-5.12-34.29-13.91v146.71l27.19 23.48h93.16l27.18-23.48z"/><path d="M190.595 135.98v100.73c0 5.62-4.56 10.18-10.18 10.18s-10.17-4.56-10.17-10.18V135.98c0-5.62 4.55-10.171 10.17-10.171 5.62.001 10.18 4.551 10.18 10.171zM140.225 135.98v100.73c0 5.62-4.55 10.18-10.17 10.18s-10.18-4.56-10.18-10.18V135.98c0-5.62 4.559-10.171 10.18-10.171a10.167 10.167 0 0 1 10.17 10.171zM112.715 52.45c5.13 2.29 7.44 8.31 5.15 13.439-2.29 5.13-8.3 7.44-13.431 5.15a6.526 6.526 0 0 0-5.059-.13 6.53 6.53 0 0 0-3.67 3.479c-1.68 3.78-5.4 6.04-9.3 6.04-1.38 0-2.78-.29-4.13-.89-5.13-2.28-7.44-8.3-5.16-13.43 2.93-6.58 8.25-11.62 14.97-14.2 6.73-2.578 14.05-2.388 20.63.542zM89.865 135.98v100.73c0 5.62-4.561 10.18-10.181 10.18-5.619 0-10.17-4.56-10.17-10.18V135.98c0-5.62 4.551-10.171 10.17-10.171 5.621.001 10.181 4.551 10.181 10.171z"/></svg>